<svg width="32" height="25" viewBox="0 0 32 25" fill="none" xmlns="http://www.w3.org/2000/svg">
<path d="M28.5283 5.28569H2.52783C1.13188 5.28569 0 4.23961 0 2.94887C0 1.6584 1.13159 0.612061 2.52783 0.612061H28.5283C29.9242 0.612061 31.0561 1.65814 31.0561 2.94887C31.0561 4.23961 29.9242 5.28569 28.5283 5.28569Z" fill="#3F3F3E"/>
<path d="M28.5283 14.9668H2.52783C1.13188 14.9668 0 13.9208 0 12.63C0 11.3396 1.13159 10.2932 2.52783 10.2932H28.5283C29.9242 10.2932 31.0561 11.3393 31.0561 12.63C31.0561 13.9205 29.9242 14.9668 28.5283 14.9668Z" fill="#3F3F3E"/>
<path d="M28.5283 24.6473H2.52783C1.13188 24.6473 0 23.6012 0 22.3105C0 21.02 1.13159 19.9737 2.52783 19.9737H28.5283C29.9242 19.9737 31.0561 21.0198 31.0561 22.3105C31.0561 23.601 29.9242 24.6473 28.5283 24.6473Z" fill="#3F3F3E"/>
</svg>
